<svg xmlns="http://www.w3.org/2000/svg" xmlns:xlink="http://www.w3.org/1999/xlink" width="353" height="906" viewBox="0 0 353 906"><defs><filter id="a" x="0" y="0" width="353" height="225" filterUnits="userSpaceOnUse"><feOffset dy="3" input="SourceAlpha"/><feGaussianBlur stdDeviation="3" result="b"/><feFlood flood-opacity="0.02"/><feComposite operator="in" in2="b"/><feComposite in="SourceGraphic"/></filter><filter id="c" x="253" y="16" width="83" height="83" filterUnits="userSpaceOnUse"><feOffset dy="3" input="SourceAlpha"/><feGaussianBlur stdDeviation="3" result="d"/><feFlood flood-opacity="0.039"/><feComposite operator="in" in2="d"/><feComposite in="SourceGraphic"/></filter><filter id="e" x="0" y="227" width="353" height="225" filterUnits="userSpaceOnUse"><feOffset dy="3" input="SourceAlpha"/><feGaussianBlur stdDeviation="3" result="f"/><feFlood flood-opacity="0.071"/><feComposite operator="in" in2="f"/><feComposite in="SourceGraphic"/></filter><filter id="g" x="0" y="454" width="353" height="225" filterUnits="userSpaceOnUse"><feOffset dy="3" input="SourceAlpha"/><feGaussianBlur stdDeviation="3" result="h"/><feFlood flood-opacity="0.071"/><feComposite operator="in" in2="h"/><feComposite in="SourceGraphic"/></filter><filter id="i" x="0" y="681" width="353" height="225" filterUnits="userSpaceOnUse"><feOffset dy="3" input="SourceAlpha"/><feGaussianBlur stdDeviation="3" result="j"/><feFlood flood-opacity="0.071"/><feComposite operator="in" in2="j"/><feComposite in="SourceGraphic"/></filter></defs><g transform="translate(-11 -314)"><g transform="translate(0 2)"><g transform="matrix(1, 0, 0, 1, 11, 312)" filter="url(#a)"><g transform="translate(9 6)" fill="#fff" stroke="#ffcc20" stroke-width="1"><rect width="335" height="207" rx="5" stroke="none"/><rect x="0.5" y="0.5" width="334" height="206" rx="4.5" fill="none"/></g></g><text transform="translate(35 344)" fill="#727c8e" font-size="12" font-family="OpenSans, Open Sans"><tspan x="0" y="0">Nº Pedido</tspan></text><text transform="translate(36 388)" fill="#727c8e" font-size="12" font-family="OpenSans, Open Sans"><tspan x="0" y="0">Cliente</tspan></text><text transform="translate(130 344)" fill="#727c8e" font-size="12" font-family="OpenSans, Open Sans"><tspan x="0" y="0">Situação</tspan></text><text transform="translate(36 433)" fill="#727c8e" font-size="12" font-family="OpenSans, Open Sans"><tspan x="0" y="0">Valor Total( R$)</tspan></text><text transform="translate(34 363)" fill="#333" font-size="14" font-family="OpenSans-Bold, Open Sans" font-weight="700"><tspan x="0" y="0">10252</tspan></text><text transform="translate(35 407)" fill="#333" font-size="14" font-family="OpenSans-Bold, Open Sans" font-weight="700"><tspan x="0" y="0">Adriano Francisco</tspan></text><text transform="translate(129 363)" fill="#333" font-size="14" font-family="OpenSans-Bold, Open Sans" font-weight="700"><tspan x="0" y="0">Em Aberto</tspan></text><text transform="translate(35 452)" fill="#333" font-size="16" font-family="OpenSans-Bold, Open Sans" font-weight="700"><tspan x="0" y="0">341,64</tspan></text><g transform="translate(0 65)"><text transform="translate(58 419)" fill="#727c8e" font-size="12" font-family="OpenSans, Open Sans"><tspan x="0" y="0">Data de Emissão: </tspan></text><text transform="translate(36 438)" fill="#727c8e" font-size="12" font-family="OpenSans-Bold, Open Sans" font-weight="700"><tspan x="0" y="0">01/04/2021</tspan></text><path d="M12.658,4.645H.348A.349.349,0,0,1,0,4.3V3.252A1.394,1.394,0,0,1,1.394,1.858H2.787V.348A.349.349,0,0,1,3.135,0H4.3a.349.349,0,0,1,.348.348v1.51H8.361V.348A.349.349,0,0,1,8.71,0H9.871a.349.349,0,0,1,.348.348v1.51h1.394a1.394,1.394,0,0,1,1.394,1.394V4.3A.349.349,0,0,1,12.658,4.645ZM.348,5.574h12.31a.349.349,0,0,1,.348.348v7.548a1.394,1.394,0,0,1-1.394,1.394H1.394A1.394,1.394,0,0,1,0,13.471V5.923A.349.349,0,0,1,.348,5.574ZM3.716,11.5a.349.349,0,0,0-.348-.348H2.206a.349.349,0,0,0-.348.348v1.161a.349.349,0,0,0,.348.348H3.368a.349.349,0,0,0,.348-.348Zm0-3.716a.349.349,0,0,0-.348-.348H2.206a.349.349,0,0,0-.348.348V8.942a.349.349,0,0,0,.348.348H3.368a.349.349,0,0,0,.348-.348ZM7.432,11.5a.349.349,0,0,0-.348-.348H5.923a.349.349,0,0,0-.348.348v1.161a.349.349,0,0,0,.348.348H7.084a.349.349,0,0,0,.348-.348Zm0-3.716a.349.349,0,0,0-.348-.348H5.923a.349.349,0,0,0-.348.348V8.942a.349.349,0,0,0,.348.348H7.084a.349.349,0,0,0,.348-.348ZM11.148,11.5a.349.349,0,0,0-.348-.348H9.639a.349.349,0,0,0-.348.348v1.161a.349.349,0,0,0,.348.348H10.8a.349.349,0,0,0,.348-.348Zm0-3.716a.349.349,0,0,0-.348-.348H9.639a.349.349,0,0,0-.348.348V8.942a.349.349,0,0,0,.348.348H10.8a.349.349,0,0,0,.348-.348Z" transform="translate(37.119 406)" fill="#727c8e"/></g><g transform="translate(213 472)"><rect width="130" height="30" rx="3" fill="none"/><text transform="translate(20 7)" fill="#1170d2" font-size="12" font-family="OpenSans-SemiBold, Open Sans" font-weight="600"><tspan x="-31.298" y="13">Ver Pedido</tspan></text><path d="M15.351,76.3a8.837,8.837,0,0,0-15.172,0,1.294,1.294,0,0,0,0,1.314,8.837,8.837,0,0,0,15.172,0A1.294,1.294,0,0,0,15.351,76.3ZM7.765,80.628a3.667,3.667,0,1,1,3.667-3.667A3.665,3.665,0,0,1,7.765,80.628Zm2.8-3.667a2.8,2.8,0,1,1-5.278-1.32h0a1.155,1.155,0,1,0,1.155-1.155h0a2.8,2.8,0,0,1,4.125,2.474Z" transform="translate(12.235 -60.961)" fill="#1170d2"/></g><g transform="translate(-18 63.642)"><g transform="matrix(1, 0, 0, 1, 29, 248.36)" filter="url(#c)"><g transform="translate(262 22)" fill="#fff" stroke="#e0e5ee" stroke-width="1"><rect width="65" height="65" rx="6" stroke="none"/><rect x="0.5" y="0.5" width="64" height="64" rx="5.5" fill="none"/></g></g><g transform="translate(27.5 -27)"><text transform="translate(296 337.391)" fill="#1170d2" font-size="9" font-family="OpenSans-SemiBold, Open Sans" font-weight="600"><tspan x="-21.168" y="0">Substituir</tspan><tspan x="-18.804" y="11">Produto </tspan></text><g transform="translate(288.385 307.711)"><path d="M5.838,10.915a.446.446,0,0,0-.435-.435H1.051a.446.446,0,0,0-.435.435v3.191a.446.446,0,0,0,.435.435H5.4a.446.446,0,0,0,.435-.435Zm-3.452-4.5H.964c-.29,0-.435.261-.261.406L3.023,9.232a.349.349,0,0,0,.406,0L5.75,6.824c.174-.174.029-.406-.261-.406H4.126A3.093,3.093,0,0,1,7,3.517V1.776A4.558,4.558,0,0,0,2.385,6.418Zm9.777-.493a.349.349,0,0,0-.406,0L9.435,8.333c-.174.174-.029.406.261.406h1.393a2.764,2.764,0,0,1-2.93,2.9v1.741a4.607,4.607,0,0,0,4.671-4.642h1.422c.29,0,.435-.261.261-.406l-2.35-2.408Zm2.379-4.874a.446.446,0,0,0-.435-.435H9.754a.446.446,0,0,0-.435.435V4.242a.446.446,0,0,0,.435.435h4.352a.446.446,0,0,0,.435-.435Z" fill="#1170d2"/></g></g></g></g><g transform="translate(0 229)"><g transform="matrix(1, 0, 0, 1, 11, 85)" filter="url(#e)"><g transform="translate(9 233)" fill="#fff"><path d="M 332 206.5 L 3 206.5 C 1.621500015258789 206.5 0.5 205.3784942626953 0.5 204 L 0.5 3 C 0.5 1.621500015258789 1.621500015258789 0.5 3 0.5 L 332 0.5 C 333.3785095214844 0.5 334.5 1.621500015258789 334.5 3 L 334.5 204 C 334.5 205.3784942626953 333.3785095214844 206.5 332 206.5 Z" stroke="none"/><path d="M 3 1 C 1.897216796875 1 1 1.897201538085938 1 3 L 1 204 C 1 205.1027984619141 1.897216796875 206 3 206 L 332 206 C 333.102783203125 206 334 205.1027984619141 334 204 L 334 3 C 334 1.897201538085938 333.102783203125 1 332 1 L 3 1 M 3 0 L 332 0 C 333.6568603515625 0 335 1.343124389648438 335 3 L 335 204 C 335 205.6568756103516 333.6568603515625 207 332 207 L 3 207 C 1.3431396484375 207 0 205.6568756103516 0 204 L 0 3 C 0 1.343124389648438 1.3431396484375 0 3 0 Z" stroke="none" fill="#e0e5ee"/></g></g><text transform="translate(35 344)" fill="#727c8e" font-size="12" font-family="OpenSans, Open Sans"><tspan x="0" y="0">Nº Pedido</tspan></text><text transform="translate(36 388)" fill="#727c8e" font-size="12" font-family="OpenSans, Open Sans"><tspan x="0" y="0">Cliente</tspan></text><text transform="translate(150 344)" fill="#727c8e" font-size="12" font-family="OpenSans, Open Sans"><tspan x="0" y="0">Situação</tspan></text><text transform="translate(36 433)" fill="#727c8e" font-size="12" font-family="OpenSans, Open Sans"><tspan x="0" y="0">Valor Total( R$)</tspan></text><text transform="translate(34 363)" fill="#333" font-size="14" font-family="OpenSans-Bold, Open Sans" font-weight="700"><tspan x="0" y="0">10253</tspan></text><text transform="translate(35 407)" fill="#333" font-size="14" font-family="OpenSans-Bold, Open Sans" font-weight="700"><tspan x="0" y="0">Pedro Antonio da Fonseca</tspan></text><text transform="translate(304 361)" fill="#333" font-size="14" font-family="OpenSans-Bold, Open Sans" font-weight="700"><tspan x="0" y="0">Não</tspan></text><text transform="translate(149 363)" fill="#333" font-size="14" font-family="OpenSans-Bold, Open Sans" font-weight="700"><tspan x="0" y="0">Bloqueado</tspan></text><text transform="translate(35 452)" fill="#333" font-size="16" font-family="OpenSans-Bold, Open Sans" font-weight="700"><tspan x="0" y="0">187,88</tspan></text><g transform="translate(0 65)"><text transform="translate(58 419)" fill="#727c8e" font-size="12" font-family="OpenSans, Open Sans"><tspan x="0" y="0">Data de Emissão: </tspan></text><text transform="translate(36 438)" fill="#727c8e" font-size="12" font-family="OpenSans-Bold, Open Sans" font-weight="700"><tspan x="0" y="0">01/04/2021</tspan></text><path d="M12.658,4.645H.348A.349.349,0,0,1,0,4.3V3.252A1.394,1.394,0,0,1,1.394,1.858H2.787V.348A.349.349,0,0,1,3.135,0H4.3a.349.349,0,0,1,.348.348v1.51H8.361V.348A.349.349,0,0,1,8.71,0H9.871a.349.349,0,0,1,.348.348v1.51h1.394a1.394,1.394,0,0,1,1.394,1.394V4.3A.349.349,0,0,1,12.658,4.645ZM.348,5.574h12.31a.349.349,0,0,1,.348.348v7.548a1.394,1.394,0,0,1-1.394,1.394H1.394A1.394,1.394,0,0,1,0,13.471V5.923A.349.349,0,0,1,.348,5.574ZM3.716,11.5a.349.349,0,0,0-.348-.348H2.206a.349.349,0,0,0-.348.348v1.161a.349.349,0,0,0,.348.348H3.368a.349.349,0,0,0,.348-.348Zm0-3.716a.349.349,0,0,0-.348-.348H2.206a.349.349,0,0,0-.348.348V8.942a.349.349,0,0,0,.348.348H3.368a.349.349,0,0,0,.348-.348ZM7.432,11.5a.349.349,0,0,0-.348-.348H5.923a.349.349,0,0,0-.348.348v1.161a.349.349,0,0,0,.348.348H7.084a.349.349,0,0,0,.348-.348Zm0-3.716a.349.349,0,0,0-.348-.348H5.923a.349.349,0,0,0-.348.348V8.942a.349.349,0,0,0,.348.348H7.084a.349.349,0,0,0,.348-.348ZM11.148,11.5a.349.349,0,0,0-.348-.348H9.639a.349.349,0,0,0-.348.348v1.161a.349.349,0,0,0,.348.348H10.8a.349.349,0,0,0,.348-.348Zm0-3.716a.349.349,0,0,0-.348-.348H9.639a.349.349,0,0,0-.348.348V8.942a.349.349,0,0,0,.348.348H10.8a.349.349,0,0,0,.348-.348Z" transform="translate(37.119 406)" fill="#727c8e"/></g><g transform="translate(204 472)"><rect width="130" height="30" rx="3" fill="none"/><text transform="translate(20 7)" fill="#1170d2" font-size="12" font-family="OpenSans-SemiBold, Open Sans" font-weight="600"><tspan x="-31.298" y="13">Ver Pedido</tspan></text><path d="M15.351,76.3a8.837,8.837,0,0,0-15.172,0,1.294,1.294,0,0,0,0,1.314,8.837,8.837,0,0,0,15.172,0A1.294,1.294,0,0,0,15.351,76.3ZM7.765,80.628a3.667,3.667,0,1,1,3.667-3.667A3.665,3.665,0,0,1,7.765,80.628Zm2.8-3.667a2.8,2.8,0,1,1-5.278-1.32h0a1.155,1.155,0,1,0,1.155-1.155h0a2.8,2.8,0,0,1,4.125,2.474Z" transform="translate(12.235 -60.961)" fill="#1170d2"/></g><text transform="translate(230 345)" fill="#727c8e" font-size="12" font-family="OpenSans, Open Sans"><tspan x="0" y="0">Substituir Produto </tspan></text></g><g transform="translate(0 456)"><g transform="matrix(1, 0, 0, 1, 11, -142)" filter="url(#g)"><g transform="translate(9 460)" fill="#fff"><path d="M 332 206.5 L 3 206.5 C 1.621500015258789 206.5 0.5 205.3784942626953 0.5 204 L 0.5 3 C 0.5 1.621500015258789 1.621500015258789 0.5 3 0.5 L 332 0.5 C 333.3785095214844 0.5 334.5 1.621500015258789 334.5 3 L 334.5 204 C 334.5 205.3784942626953 333.3785095214844 206.5 332 206.5 Z" stroke="none"/><path d="M 3 1 C 1.897216796875 1 1 1.897201538085938 1 3 L 1 204 C 1 205.1027984619141 1.897216796875 206 3 206 L 332 206 C 333.102783203125 206 334 205.1027984619141 334 204 L 334 3 C 334 1.897201538085938 333.102783203125 1 332 1 L 3 1 M 3 0 L 332 0 C 333.6568603515625 0 335 1.343124389648438 335 3 L 335 204 C 335 205.6568756103516 333.6568603515625 207 332 207 L 3 207 C 1.3431396484375 207 0 205.6568756103516 0 204 L 0 3 C 0 1.343124389648438 1.3431396484375 0 3 0 Z" stroke="none" fill="#8dc63f"/></g></g><text transform="translate(35 344)" fill="#727c8e" font-size="12" font-family="OpenSans, Open Sans"><tspan x="0" y="0">Nº Pedido</tspan></text><text transform="translate(36 388)" fill="#727c8e" font-size="12" font-family="OpenSans, Open Sans"><tspan x="0" y="0">Cliente</tspan></text><text transform="translate(150 344)" fill="#727c8e" font-size="12" font-family="OpenSans, Open Sans"><tspan x="0" y="0">Situação</tspan></text><text transform="translate(36 433)" fill="#727c8e" font-size="12" font-family="OpenSans, Open Sans"><tspan x="0" y="0">Valor Total( R$)</tspan></text><text transform="translate(34 363)" fill="#333" font-size="14" font-family="OpenSans-Bold, Open Sans" font-weight="700"><tspan x="0" y="0">10254</tspan></text><text transform="translate(35 407)" fill="#333" font-size="14" font-family="OpenSans-Bold, Open Sans" font-weight="700"><tspan x="0" y="0">Agrogeo SA</tspan></text><text transform="translate(304 361)" fill="#333" font-size="14" font-family="OpenSans-Bold, Open Sans" font-weight="700"><tspan x="0" y="0">Não</tspan></text><text transform="translate(149 363)" fill="#333" font-size="14" font-family="OpenSans-Bold, Open Sans" font-weight="700"><tspan x="0" y="0">Aprovado</tspan></text><text transform="translate(35 452)" fill="#333" font-size="16" font-family="OpenSans-Bold, Open Sans" font-weight="700"><tspan x="0" y="0">781,10</tspan></text><g transform="translate(0 65)"><text transform="translate(58 419)" fill="#727c8e" font-size="12" font-family="OpenSans, Open Sans"><tspan x="0" y="0">Data de Emissão </tspan></text><text transform="translate(36 438)" fill="#727c8e" font-size="12" font-family="OpenSans-Bold, Open Sans" font-weight="700"><tspan x="0" y="0">01/04/2021</tspan></text><path d="M12.658,4.645H.348A.349.349,0,0,1,0,4.3V3.252A1.394,1.394,0,0,1,1.394,1.858H2.787V.348A.349.349,0,0,1,3.135,0H4.3a.349.349,0,0,1,.348.348v1.51H8.361V.348A.349.349,0,0,1,8.71,0H9.871a.349.349,0,0,1,.348.348v1.51h1.394a1.394,1.394,0,0,1,1.394,1.394V4.3A.349.349,0,0,1,12.658,4.645ZM.348,5.574h12.31a.349.349,0,0,1,.348.348v7.548a1.394,1.394,0,0,1-1.394,1.394H1.394A1.394,1.394,0,0,1,0,13.471V5.923A.349.349,0,0,1,.348,5.574ZM3.716,11.5a.349.349,0,0,0-.348-.348H2.206a.349.349,0,0,0-.348.348v1.161a.349.349,0,0,0,.348.348H3.368a.349.349,0,0,0,.348-.348Zm0-3.716a.349.349,0,0,0-.348-.348H2.206a.349.349,0,0,0-.348.348V8.942a.349.349,0,0,0,.348.348H3.368a.349.349,0,0,0,.348-.348ZM7.432,11.5a.349.349,0,0,0-.348-.348H5.923a.349.349,0,0,0-.348.348v1.161a.349.349,0,0,0,.348.348H7.084a.349.349,0,0,0,.348-.348Zm0-3.716a.349.349,0,0,0-.348-.348H5.923a.349.349,0,0,0-.348.348V8.942a.349.349,0,0,0,.348.348H7.084a.349.349,0,0,0,.348-.348ZM11.148,11.5a.349.349,0,0,0-.348-.348H9.639a.349.349,0,0,0-.348.348v1.161a.349.349,0,0,0,.348.348H10.8a.349.349,0,0,0,.348-.348Zm0-3.716a.349.349,0,0,0-.348-.348H9.639a.349.349,0,0,0-.348.348V8.942a.349.349,0,0,0,.348.348H10.8a.349.349,0,0,0,.348-.348Z" transform="translate(37.119 406)" fill="#727c8e"/></g><g transform="translate(204 472)"><rect width="130" height="30" rx="3" fill="none"/><text transform="translate(20 7)" fill="#1170d2" font-size="12" font-family="OpenSans-SemiBold, Open Sans" font-weight="600"><tspan x="-31.298" y="13">Ver Pedido</tspan></text><path d="M15.351,76.3a8.837,8.837,0,0,0-15.172,0,1.294,1.294,0,0,0,0,1.314,8.837,8.837,0,0,0,15.172,0A1.294,1.294,0,0,0,15.351,76.3ZM7.765,80.628a3.667,3.667,0,1,1,3.667-3.667A3.665,3.665,0,0,1,7.765,80.628Zm2.8-3.667a2.8,2.8,0,1,1-5.278-1.32h0a1.155,1.155,0,1,0,1.155-1.155h0a2.8,2.8,0,0,1,4.125,2.474Z" transform="translate(12.235 -60.961)" fill="#1170d2"/></g></g><g transform="translate(0 683)"><g transform="matrix(1, 0, 0, 1, 11, -369)" filter="url(#i)"><g transform="translate(9 687)" fill="#fff"><path d="M 332 206.5 L 3 206.5 C 1.621500015258789 206.5 0.5 205.3784942626953 0.5 204 L 0.5 3 C 0.5 1.621500015258789 1.621500015258789 0.5 3 0.5 L 332 0.5 C 333.3785095214844 0.5 334.5 1.621500015258789 334.5 3 L 334.5 204 C 334.5 205.3784942626953 333.3785095214844 206.5 332 206.5 Z" stroke="none"/><path d="M 3 1 C 1.897216796875 1 1 1.897201538085938 1 3 L 1 204 C 1 205.1027984619141 1.897216796875 206 3 206 L 332 206 C 333.102783203125 206 334 205.1027984619141 334 204 L 334 3 C 334 1.897201538085938 333.102783203125 1 332 1 L 3 1 M 3 0 L 332 0 C 333.6568603515625 0 335 1.343124389648438 335 3 L 335 204 C 335 205.6568756103516 333.6568603515625 207 332 207 L 3 207 C 1.3431396484375 207 0 205.6568756103516 0 204 L 0 3 C 0 1.343124389648438 1.3431396484375 0 3 0 Z" stroke="none" fill="#8dc63f"/></g></g><text transform="translate(35 344)" fill="#727c8e" font-size="12" font-family="OpenSans, Open Sans"><tspan x="0" y="0">Nº Pedido</tspan></text><text transform="translate(36 388)" fill="#727c8e" font-size="12" font-family="OpenSans, Open Sans"><tspan x="0" y="0">Cliente</tspan></text><text transform="translate(304 344)" fill="#727c8e" font-size="12" font-family="OpenSans, Open Sans"><tspan x="0" y="0">Troca</tspan></text><text transform="translate(150 344)" fill="#727c8e" font-size="12" font-family="OpenSans, Open Sans"><tspan x="0" y="0">Situação</tspan></text><text transform="translate(36 433)" fill="#727c8e" font-size="12" font-family="OpenSans, Open Sans"><tspan x="0" y="0">Valor Total( R$)</tspan></text><text transform="translate(34 363)" fill="#333" font-size="14" font-family="OpenSans-Bold, Open Sans" font-weight="700"><tspan x="0" y="0">10255</tspan></text><text transform="translate(35 407)" fill="#333" font-size="14" font-family="OpenSans-Bold, Open Sans" font-weight="700"><tspan x="0" y="0">Alberto Folloni</tspan></text><text transform="translate(304 361)" fill="#333" font-size="14" font-family="OpenSans-Bold, Open Sans" font-weight="700"><tspan x="0" y="0">Não</tspan></text><text transform="translate(149 363)" fill="#333" font-size="14" font-family="OpenSans-Bold, Open Sans" font-weight="700"><tspan x="0" y="0">Aprovado</tspan></text><text transform="translate(35 452)" fill="#333" font-size="16" font-family="OpenSans-Bold, Open Sans" font-weight="700"><tspan x="0" y="0">1042,01</tspan></text><g transform="translate(0 65)"><text transform="translate(58 419)" fill="#727c8e" font-size="12" font-family="OpenSans, Open Sans"><tspan x="0" y="0">Data de Emissão </tspan></text><text transform="translate(36 438)" fill="#727c8e" font-size="12" font-family="OpenSans-Bold, Open Sans" font-weight="700"><tspan x="0" y="0">01/04/2021</tspan></text><path d="M12.658,4.645H.348A.349.349,0,0,1,0,4.3V3.252A1.394,1.394,0,0,1,1.394,1.858H2.787V.348A.349.349,0,0,1,3.135,0H4.3a.349.349,0,0,1,.348.348v1.51H8.361V.348A.349.349,0,0,1,8.71,0H9.871a.349.349,0,0,1,.348.348v1.51h1.394a1.394,1.394,0,0,1,1.394,1.394V4.3A.349.349,0,0,1,12.658,4.645ZM.348,5.574h12.31a.349.349,0,0,1,.348.348v7.548a1.394,1.394,0,0,1-1.394,1.394H1.394A1.394,1.394,0,0,1,0,13.471V5.923A.349.349,0,0,1,.348,5.574ZM3.716,11.5a.349.349,0,0,0-.348-.348H2.206a.349.349,0,0,0-.348.348v1.161a.349.349,0,0,0,.348.348H3.368a.349.349,0,0,0,.348-.348Zm0-3.716a.349.349,0,0,0-.348-.348H2.206a.349.349,0,0,0-.348.348V8.942a.349.349,0,0,0,.348.348H3.368a.349.349,0,0,0,.348-.348ZM7.432,11.5a.349.349,0,0,0-.348-.348H5.923a.349.349,0,0,0-.348.348v1.161a.349.349,0,0,0,.348.348H7.084a.349.349,0,0,0,.348-.348Zm0-3.716a.349.349,0,0,0-.348-.348H5.923a.349.349,0,0,0-.348.348V8.942a.349.349,0,0,0,.348.348H7.084a.349.349,0,0,0,.348-.348ZM11.148,11.5a.349.349,0,0,0-.348-.348H9.639a.349.349,0,0,0-.348.348v1.161a.349.349,0,0,0,.348.348H10.8a.349.349,0,0,0,.348-.348Zm0-3.716a.349.349,0,0,0-.348-.348H9.639a.349.349,0,0,0-.348.348V8.942a.349.349,0,0,0,.348.348H10.8a.349.349,0,0,0,.348-.348Z" transform="translate(37.119 406)" fill="#727c8e"/></g><g transform="translate(204 472)"><rect width="130" height="30" rx="3" fill="none"/><text transform="translate(20 7)" fill="#1170d2" font-size="12" font-family="OpenSans-SemiBold, Open Sans" font-weight="600"><tspan x="-31.298" y="13">Ver Pedido</tspan></text><path d="M15.351,76.3a8.837,8.837,0,0,0-15.172,0,1.294,1.294,0,0,0,0,1.314,8.837,8.837,0,0,0,15.172,0A1.294,1.294,0,0,0,15.351,76.3ZM7.765,80.628a3.667,3.667,0,1,1,3.667-3.667A3.665,3.665,0,0,1,7.765,80.628Zm2.8-3.667a2.8,2.8,0,1,1-5.278-1.32h0a1.155,1.155,0,1,0,1.155-1.155h0a2.8,2.8,0,0,1,4.125,2.474Z" transform="translate(12.235 -60.961)" fill="#1170d2"/></g></g></g></svg>